<svg width="1600" height="1000" viewBox="0 0 1600 1000" fill="none" xmlns="http://www.w3.org/2000/svg">
  <defs>
    <linearGradient id="bgA1" x1="0" y1="0" x2="1600" y2="1000" gradientUnits="userSpaceOnUse">
      <stop stop-color="#F7F8FB"/>
      <stop offset="0.55" stop-color="#F2F5FA"/>
      <stop offset="1" stop-color="#EDEFF5"/>
    </linearGradient>
    <linearGradient id="heroA1" x1="260" y1="170" x2="1120" y2="860" gradientUnits="userSpaceOnUse">
      <stop stop-color="#FFFFFF" stop-opacity="0.95"/>
      <stop offset="1" stop-color="#F6F8FC" stop-opacity="0.88"/>
    </linearGradient>
    <linearGradient id="accentA1" x1="0" y1="0" x2="1" y2="1">
      <stop stop-color="#7AB6FF"/>
      <stop offset="1" stop-color="#9D8CFF"/>
    </linearGradient>
    <filter id="shadowA1" x="-20%" y="-20%" width="140%" height="140%">
      <feDropShadow dx="0" dy="24" stdDeviation="36" flood-color="#A7B4C8" flood-opacity="0.18"/>
    </filter>
    <filter id="blurA1" x="-30%" y="-30%" width="160%" height="160%">
      <feGaussianBlur stdDeviation="24"/>
    </filter>
  </defs>

  <rect width="1600" height="1000" fill="url(#bgA1)"/>
  <circle cx="1360" cy="140" r="170" fill="#C7D8FF" opacity="0.65" filter="url(#blurA1)"/>
  <circle cx="250" cy="860" r="190" fill="#E4D8FF" opacity="0.55" filter="url(#blurA1)"/>
  <circle cx="1120" cy="820" r="140" fill="#D7F0FF" opacity="0.55" filter="url(#blurA1)"/>

  <rect x="72" y="48" width="1456" height="76" rx="30" fill="#FFFFFF" fill-opacity="0.72" stroke="#FFFFFF" stroke-opacity="0.7" filter="url(#shadowA1)"/>
  <text x="120" y="95" fill="#111827" font-size="30" font-family="SF Pro Display, Segoe UI, Arial, sans-serif" font-weight="700">Aster Note</text>
  <text x="450" y="95" fill="#6B7280" font-size="18" font-family="SF Pro Text, Segoe UI, Arial, sans-serif">首页</text>
  <text x="545" y="95" fill="#6B7280" font-size="18" font-family="SF Pro Text, Segoe UI, Arial, sans-serif">文章</text>
  <text x="640" y="95" fill="#6B7280" font-size="18" font-family="SF Pro Text, Segoe UI, Arial, sans-serif">专题</text>
  <text x="735" y="95" fill="#6B7280" font-size="18" font-family="SF Pro Text, Segoe UI, Arial, sans-serif">关于</text>
  <rect x="1332" y="66" width="144" height="40" rx="20" fill="#111827"/>
  <text x="1380" y="92" fill="#FFFFFF" font-size="16" font-family="SF Pro Text, Segoe UI, Arial, sans-serif" font-weight="600">订阅更新</text>

  <rect x="90" y="160" width="1420" height="760" rx="42" fill="url(#heroA1)" stroke="#FFFFFF" stroke-opacity="0.85" filter="url(#shadowA1)"/>
  <rect x="120" y="190" width="760" height="700" rx="34" fill="#FFFFFF" fill-opacity="0.76" stroke="#EEF2F8"/>
  <text x="170" y="280" fill="#6B7280" font-size="18" font-family="SF Pro Text, Segoe UI, Arial, sans-serif">个人技术博客 · 设计 / 开发 / 思考</text>
  <text x="170" y="390" fill="#111827" font-size="78" font-family="SF Pro Display, Segoe UI, Arial, sans-serif" font-weight="700">用更简洁的方式</text>
  <text x="170" y="480" fill="#111827" font-size="78" font-family="SF Pro Display, Segoe UI, Arial, sans-serif" font-weight="700">记录技术与灵感</text>
  <text x="170" y="560" fill="#6B7280" font-size="26" font-family="SF Pro Text, Segoe UI, Arial, sans-serif">干净的留白、细腻的层级和柔和的玻璃质感，让内容成为视觉中心。</text>
  <rect x="170" y="630" width="210" height="58" rx="29" fill="#111827"/>
  <text x="236" y="668" fill="#FFFFFF" font-size="20" font-family="SF Pro Text, Segoe UI, Arial, sans-serif" font-weight="600">开始阅读</text>
  <rect x="398" y="630" width="190" height="58" rx="29" fill="#F3F4F6" stroke="#E5E7EB"/>
  <text x="454" y="668" fill="#374151" font-size="20" font-family="SF Pro Text, Segoe UI, Arial, sans-serif">查看项目</text>

  <rect x="170" y="740" width="660" height="110" rx="28" fill="#FAFBFD" stroke="#ECEFF4"/>
  <text x="205" y="790" fill="#111827" font-size="28" font-family="SF Pro Display, Segoe UI, Arial, sans-serif" font-weight="600">最新文章：把博客做成像产品主页一样清爽</text>
  <text x="205" y="830" fill="#6B7280" font-size="18" font-family="SF Pro Text, Segoe UI, Arial, sans-serif">布局、排版、组件与品牌表达的平衡</text>

  <rect x="910" y="190" width="570" height="330" rx="34" fill="#FFFFFF" fill-opacity="0.7" stroke="#EEF2F8"/>
  <text x="955" y="255" fill="#111827" font-size="30" font-family="SF Pro Display, Segoe UI, Arial, sans-serif" font-weight="600">作者简介</text>
  <circle cx="1015" cy="340" r="48" fill="url(#accentA1)" opacity="0.95"/>
  <circle cx="1015" cy="328" r="18" fill="#FFFFFF" opacity="0.95"/>
  <path d="M984 369C998 352 1032 352 1046 369C1048 371 1048 375 1048 378H982C982 375 982 371 984 369Z" fill="#FFFFFF" opacity="0.95"/>
  <text x="1095" y="332" fill="#111827" font-size="32" font-family="SF Pro Display, Segoe UI, Arial, sans-serif" font-weight="700">Lin Mo</text>
  <text x="1095" y="372" fill="#6B7280" font-size="18" font-family="SF Pro Text, Segoe UI, Arial, sans-serif">Product-minded Developer</text>
  <text x="955" y="440" fill="#6B7280" font-size="20" font-family="SF Pro Text, Segoe UI, Arial, sans-serif">专注前端体验、设计系统与内容表达，分享日常开发中的方法和灵感。</text>

  <rect x="910" y="550" width="270" height="340" rx="34" fill="#FFFFFF" fill-opacity="0.72" stroke="#EEF2F8"/>
  <text x="950" y="615" fill="#111827" font-size="28" font-family="SF Pro Display, Segoe UI, Arial, sans-serif" font-weight="600">栏目</text>
  <text x="950" y="685" fill="#374151" font-size="20" font-family="SF Pro Text, Segoe UI, Arial, sans-serif">设计系统</text>
  <text x="950" y="740" fill="#374151" font-size="20" font-family="SF Pro Text, Segoe UI, Arial, sans-serif">前端工程</text>
  <text x="950" y="795" fill="#374151" font-size="20" font-family="SF Pro Text, Segoe UI, Arial, sans-serif">效率工具</text>
  <text x="950" y="850" fill="#374151" font-size="20" font-family="SF Pro Text, Segoe UI, Arial, sans-serif">个人随笔</text>

  <rect x="1210" y="550" width="270" height="340" rx="34" fill="#FFFFFF" fill-opacity="0.72" stroke="#EEF2F8"/>
  <text x="1250" y="615" fill="#111827" font-size="28" font-family="SF Pro Display, Segoe UI, Arial, sans-serif" font-weight="600">数据</text>
  <text x="1250" y="700" fill="#111827" font-size="52" font-family="SF Pro Display, Segoe UI, Arial, sans-serif" font-weight="700">128</text>
  <text x="1250" y="735" fill="#6B7280" font-size="18" font-family="SF Pro Text, Segoe UI, Arial, sans-serif">累计文章</text>
  <rect x="1250" y="778" width="150" height="12" rx="6" fill="#E5E7EB"/>
  <rect x="1250" y="778" width="106" height="12" rx="6" fill="url(#accentA1)"/>
  <text x="1250" y="830" fill="#6B7280" font-size="18" font-family="SF Pro Text, Segoe UI, Arial, sans-serif">本月阅读增长 71%</text>
</svg>
